<?xml version="1.0" standalone="no"?>
<!DOCTYPE svg PUBLIC "-//W3C//DTD SVG 20010904//EN"
 "http://www.w3.org/TR/2001/REC-SVG-20010904/DTD/svg10.dtd">
<svg version="1.0" xmlns="http://www.w3.org/2000/svg"
 width="698.000000pt" height="373.000000pt" viewBox="0 0 698.000000 373.000000"
 preserveAspectRatio="xMidYMid meet">

<g transform="translate(0.000000,373.000000) scale(0.100000,-0.100000)"
fill="#000000" stroke="none">
<path d="M3560 3638 c0 -23 2 -23 97 -20 90 3 143 -7 143 -28 0 -4 -17 -12
-39 -18 -54 -17 -65 -34 -67 -106 -1 -33 -2 -63 -3 -66 -4 -11 -31 64 -31 86
0 22 -4 24 -49 24 l-50 0 -3 -180 c-2 -98 -1 -205 0 -236 4 -55 4 -56 30 -50
15 4 143 9 285 13 l257 6 0 37 c0 33 -4 39 -27 45 l-28 7 25 20 c14 11 24 24
23 29 -2 5 5 5 15 2 9 -3 14 -3 10 2 -4 4 1 18 11 31 11 15 16 33 13 53 l-4
31 -99 0 c-54 0 -101 -4 -104 -10 -11 -17 -74 -11 -96 9 -20 18 -20 19 8 26
15 4 116 8 223 7 120 0 176 3 145 8 -27 4 -40 8 -27 8 21 2 23 6 21 57 -2 40
2 60 15 74 10 11 21 44 25 75 6 46 5 56 -8 59 -9 3 -2 5 14 6 23 1 27 3 15 11
-9 6 -161 10 -377 10 l-363 0 0 -22z m40 -158 c0 -5 -7 -10 -15 -10 -8 0 -15
5 -15 10 0 6 7 10 15 10 8 0 15 -4 15 -10z m192 -133 c4 -7 8 -15 8 -18 0 -12
-53 -29 -71 -24 -22 7 -26 50 -6 59 17 7 60 -3 69 -17z m-162 -202 c0 -30 11
-32 35 -5 22 24 38 25 55 5 11 -13 8 -21 -15 -45 -16 -17 -35 -30 -42 -30 -18
0 -55 39 -48 50 4 6 1 10 -4 10 -6 0 -11 -9 -11 -20 0 -11 -4 -20 -10 -20 -13
0 -13 36 0 61 15 28 40 24 40 -6z"/>
<path d="M3560 3566 c0 -23 4 -24 60 -28 56 -3 61 -1 80 25 l21 27 -81 0 c-78
0 -80 -1 -80 -24z"/>
<path d="M4295 3509 c-11 -16 -1 -19 13 -3 7 8 8 14 3 14 -5 0 -13 -5 -16 -11z"/>
<path d="M1820 3369 c0 -5 9 -9 20 -9 11 0 20 2 20 4 0 2 -9 6 -20 9 -11 3
-20 1 -20 -4z"/>
<path d="M1820 3217 c0 -91 1 -94 31 -123 30 -28 33 -29 132 -28 726 4 1017 8
945 13 -47 3 -90 9 -94 14 -4 4 31 8 77 9 l84 2 -100 6 c-55 3 -82 7 -60 9 36
3 37 4 15 11 l-25 8 25 1 c31 2 65 21 37 21 -10 0 -33 16 -51 35 -19 19 -29
35 -23 35 5 0 2 9 -8 20 -10 11 -24 20 -30 20 -7 0 -18 6 -24 14 -10 11 -8 15
6 19 10 3 -197 5 -459 6 l-478 1 0 -93z"/>
<path d="M5128 3302 c10 -7 10 -25 1 -88 -6 -43 -16 -85 -22 -93 -10 -12 -9
-13 7 -7 19 7 19 6 1 -14 -10 -11 -13 -20 -7 -20 6 0 20 10 32 22 17 19 20 35
20 115 0 90 -1 93 -22 93 -16 0 -19 -3 -10 -8z"/>
<path d="M4153 3183 c9 -2 25 -2 35 0 9 3 1 5 -18 5 -19 0 -27 -2 -17 -5z"/>
<path d="M3559 3016 c-1 -1 -3 -11 -4 -23 -2 -22 1 -23 80 -23 81 0 95 6 95
38 0 5 -165 13 -171 8z"/>
<path d="M3552 2788 c1 -84 3 -137 5 -117 l4 37 42 -10 c23 -5 50 -11 59 -13
10 -2 22 4 28 13 8 14 10 12 10 -13 1 -27 2 -28 10 -8 7 17 14 181 11 251 -1
8 -25 12 -86 12 l-85 0 2 -152z"/>
<path d="M3190 1042 l0 -819 26 -24 c24 -22 34 -24 151 -27 l126 -4 -7 759
c-4 417 -11 776 -16 798 l-9 40 4 -44 c3 -38 2 -41 -10 -24 -7 10 -15 30 -18
43 -3 14 -4 -9 -2 -50 4 -67 3 -70 -4 -24 -8 47 -30 103 -31 79 0 -5 -9 8 -20
30 -17 36 -19 37 -14 10 4 -25 3 -27 -5 -9 -13 29 -31 39 -31 18 0 -27 -8 -12
-15 26 -8 44 -11 47 -19 15 -9 -34 -43 -34 -52 0 -11 45 -21 27 -32 -57 l-10
-83 5 83 c3 56 2 82 -6 82 -8 0 -11 -228 -11 -818z"/>
<path d="M50 1650 l0 -190 255 0 255 0 0 -639 0 -640 43 -6 c23 -3 110 -5 192
-3 l150 3 3 643 2 642 250 0 250 0 0 190 0 190 -700 0 -700 0 0 -190z"/>
<path d="M1912 1821 c-74 -26 -109 -57 -145 -131 -20 -42 -22 -62 -25 -306 -2
-159 1 -283 7 -319 13 -72 60 -146 115 -184 78 -54 125 -61 391 -61 l242 0 11
-25 c17 -36 15 -205 -2 -228 -12 -16 -43 -17 -384 -17 l-372 0 -5 -22 c-3 -13
-4 -97 -3 -188 l3 -165 485 -3 c534 -2 551 -1 622 58 24 20 44 50 58 87 20 55
21 71 18 358 -3 292 -4 301 -27 348 -13 26 -43 65 -68 86 -76 68 -104 73 -400
80 -144 3 -265 10 -270 14 -11 12 -21 207 -12 235 l9 22 385 0 385 0 0 190 0
190 -482 0 c-440 -1 -488 -2 -536 -19z"/>
<path d="M3932 1008 l3 -833 183 -3 182 -2 0 346 c0 310 2 345 15 334 9 -7
122 -155 252 -329 130 -174 245 -324 256 -333 17 -16 44 -18 238 -18 125 0
219 4 219 9 0 5 -17 31 -38 58 -21 26 -134 179 -252 338 -117 160 -240 325
-272 368 -32 43 -58 81 -58 85 0 4 43 63 96 132 169 220 504 669 504 674 0 3
-102 6 -227 6 l-228 0 -250 -351 -250 -351 -3 351 -2 351 -185 0 -185 0 2
-832z"/>
<path d="M5366 1828 c4 -7 62 -96 128 -198 66 -102 200 -311 298 -465 l178
-279 0 -353 c0 -275 3 -353 13 -354 6 0 93 0 192 -1 l180 0 5 353 5 354 79
125 c73 114 190 302 255 408 14 23 75 121 134 217 59 97 110 182 114 190 5 13
-22 15 -208 13 l-214 -3 -42 -70 c-23 -38 -102 -174 -175 -302 -73 -127 -136
-229 -139 -227 -3 2 -45 72 -93 156 -47 84 -126 218 -174 298 l-87 145 -228 3
c-182 2 -227 0 -221 -10z"/>
<path d="M3551 696 l-1 -528 69 4 c59 3 72 7 90 28 19 24 20 38 21 270 0 338
-12 744 -21 728 -12 -19 -33 -16 -41 7 l-6 20 -1 -20 c-1 -18 -7 -20 -46 -19
-27 1 -45 -3 -46 -10 -1 -6 -5 3 -9 19 -4 17 -8 -208 -9 -499z"/>
</g>
</svg>
